# xmcd CD database file
#
# Track frame offsets:
#	150
#	13453
#	35273
#	51860
#	70989
#	83484
#	108748
#	124271
#	140360
#	156911
#	175697
#	187981
#
# Disc length: 2851 seconds
#
# Revision: 0
# Processed by: cddbd v1.5.2PL0 Copyright (c) Steve Scherf et al.
# Submitted via: CDex 1.76
#
DISCID=a10b210c
DTITLE=Ira's World - LOVECATS
DYEAR=2016
DGENRE=Jazz
TTITLE0=LOVECATS
TTITLE1=HERE COMES THE RAIN AGAIN
TTITLE2=ONE FOR MY BABY HAROLD
TTITLE3=CRAZY
TTITLE4=HONEY PIE
TTITLE5=IT'S ALL OVER NOW BABY BLUE
TTITLE6=REDNECK WOMAN
TTITLE7=BANG BANG
TTITLE8=ARMY DREAMER
TTITLE9=I'D RATHER GO BLIND
TTITLE10=I WANT YOU BACK
TTITLE11=NIGHTS IN WHITE SATIN
EXTD=YEAR: 2016
EXTT0=
EXTT1=
EXTT2=
EXTT3=
EXTT4=
EXTT5=
EXTT6=
EXTT7=
EXTT8=
EXTT9=
EXTT10=
EXTT11=
PLAYORDER=
